inDegrees=no
num_controls=7
num_derivatives=13
num_iterations=105
num_multipliers=7
num_parameters=0
num_slacks=7
num_states=26
objective=0.431112
objective_accelerations=0.049714
objective_balance=0.006834
objective_effort=0.031045
objective_height=0.342349
objective_ligament=0.001170
solver_duration=1479.956410
status=Solve_Succeeded
success=true
DataType=double
version=3
OpenSimVersion=4.5
endheader
time	/jointset/ground_pelvis/pelvis_tilt/value	/jointset/ground_pelvis/pelvis_tx/value	/jointset/ground_pelvis/pelvis_ty/value	/jointset/hip_l/hip_flexion_l/value	/jointset/hip_l/hip_adduction_l/value	/jointset/hip_l/hip_rotation_l/value	/jointset/back/lumbar_extension/value	/jointset/patellofemoral_l/patellar_flexion_l/value	/jointset/knee_l/knee_flexion_l/value	/jointset/knee_l/knee_adduction_l/value	/jointset/knee_l/knee_rotation_l/value	/jointset/ankle_l/ankle_angle_l/value	/jointset/subtalar_l/subtalar_angle_l/value	/jointset/ground_pelvis/pelvis_tilt/speed	/jointset/ground_pelvis/pelvis_tx/speed	/jointset/ground_pelvis/pelvis_ty/speed	/jointset/hip_l/hip_flexion_l/speed	/jointset/hip_l/hip_adduction_l/speed	/jointset/hip_l/hip_rotation_l/speed	/jointset/back/lumbar_extension/speed	/jointset/patellofemoral_l/patellar_flexion_l/speed	/jointset/knee_l/knee_flexion_l/speed	/jointset/knee_l/knee_adduction_l/speed	/jointset/knee_l/knee_rotation_l/speed	/jointset/ankle_l/ankle_angle_l/speed	/jointset/subtalar_l/subtalar_angle_l/speed	/forceset/tau_hip_flexion_l	/forceset/tau_hip_adduction_l	/forceset/tau_hip_rotation_l	/forceset/tau_knee_flexion_l	/forceset/tau_ankle_angle_l	/forceset/tau_subtalar_angle_l	/forceset/tau_lumbar_extension	lambda_cid13_p0	lambda_cid13_p1	lambda_cid13_p2	lambda_cid13_p3	lambda_cid13_p4	lambda_cid13_p5	lambda_cid14_p0	/jointset/ground_pelvis/pelvis_tilt/accel	/jointset/ground_pelvis/pelvis_tx/accel	/jointset/ground_pelvis/pelvis_ty/accel	/jointset/hip_l/hip_flexion_l/accel	/jointset/hip_l/hip_adduction_l/accel	/jointset/hip_l/hip_rotation_l/accel	/jointset/back/lumbar_extension/accel	/jointset/patellofemoral_l/patellar_flexion_l/accel	/jointset/knee_l/knee_flexion_l/accel	/jointset/knee_l/knee_adduction_l/accel	/jointset/knee_l/knee_rotation_l/accel	/jointset/ankle_l/ankle_angle_l/accel	/jointset/subtalar_l/subtalar_angle_l/accel	gamma_cid13_p0	gamma_cid13_p1	gamma_cid13_p2	gamma_cid13_p3	gamma_cid13_p4	gamma_cid13_p5	gamma_cid14_p0
0.5	-0.3284728812272445	-0.02946715691504376	0.7681847231255795	1.155704828982925	-0.3052585257549145	0.007740788527382319	-0.3224884564135182	0.8091622696138854	0.8091622696134882	-0.1735172316159765	0.1676194034553271	0.1630026154806332	-0.01981759725052398	-0.4212603861725672	-0.1641104336911385	-0.5029733899645056	2.100131343082757	0.009952680066550661	0.6996048828097885	-0.6312377618259225	2.098957958821482	2.098957958821865	-0.006019444278068284	0.04168999259217449	0.5431259698124336	0.1001368333762207	-0.1838880198416254	0.01668140497747787	-0.02655657754559299	-0.2596934647978011	0.1036473757185916	0.03969596764770086	0.184362829545543	-4.81398993152958	-19.23949105877001	5.911617476470801	-2.65307942044598	-604.9439529133996	-61.50625877495168	-20.97707308782728	0.4798516335592652	0.5632454999220478	-0.4253318405886601	-1.314098475056374	0.6846754970971154	-0.3664322950598662	1.640154673824338	-1.347354451587318	-1.347354451587308	0.05201582364281114	-0.08882023863513112	-0.5303831937263843	0.7082268974541427	-4.27284650187381e-07	-4.282955985890053e-07	2.627644084237647e-06	2.910185215187742e-07	-5.103579332008147e-07	-2.899816787635641e-07	-4.099937865778155e-07
0.51	-0.3326606196635696	-0.03107987152931744	0.7631348291533575	1.176636823564216	-0.3051262545308836	0.01471978039295049	-0.3287183758182006	0.8300809325216062	0.8300809325214699	-0.1735784672021352	0.1680313904697053	0.1684060372833828	-0.01878254836613092	-0.4162372305782519	-0.1584155375517024	-0.5068944620821541	2.085979197792608	0.01647481646422711	0.6961066057215228	-0.6146644633567354	2.084482111294794	2.084482111295292	-0.00622327172587749	0.04070318951846779	0.5374749479239513	0.1068491853221503	-0.1900544634370919	0.01711130456676199	-0.02664605778212066	-0.2627638728692197	0.1023978320344191	0.03968004990563976	0.1895826683127166	-5.454523189907245	-19.02087780030026	5.763056456822386	-2.482243921556702	-609.3961624836747	-61.1358267069239	-19.69702072943961	0.5210237803245318	0.5752117565533785	-0.3589513129925461	-1.509075569071155	0.631624983622639	-0.3549103868900751	1.678165796544294	-1.541497288952032	-1.541497288934586	-0.05588921594207472	-0.1047489746546527	-0.5949607414850618	0.6489350154968976	-3.944929972446791e-07	-3.343776537052562e-07	2.505806128801172e-06	2.836566987234252e-07	-4.72375437220334e-07	-1.98766932066963e-07	-3.847045630792317e-07
0.52	-0.3367966312923606	-0.03263511716507697	0.758049033176831	1.19741863608999	-0.3049296334883723	0.02166111249340068	-0.3347801125655755	0.8508460774769115	0.8508460774770376	-0.1736416025001612	0.1684332817267635	0.1737504490562324	-0.01768113682781166	-0.4109150246656614	-0.1526166379883076	-0.510153790825388	2.07009493197938	0.02282264376269257	0.6920729297860512	-0.5976012303644118	2.068254368338409	2.068254368339025	-0.006399386651657875	0.03967084112811223	0.5313239638324317	0.1134093641614614	-0.1962209070325578	0.01754120415604778	-0.02673553801865168	-0.2658342809406377	0.1011482883502473	0.03966413216358073	0.1948025070798904	-6.100065669067402	-18.80269896626066	5.616064658594524	-2.328490209379975	-613.9511585761412	-60.84784190537474	-18.41589995209516	0.5396616972142984	0.5840461847138079	-0.2929831657057501	-1.660522579672016	0.6498136772549158	-0.4735120645010549	1.738141578451666	-1.697733537526436	-1.697733537526416	0.05755832804857742	-0.09792930196490478	-0.6303756343339042	0.6777922761304505	-3.637421457094694e-07	-2.461944142471848e-07	2.389706522059867e-06	2.774693785639314e-07	-4.390365646117511e-07	-1.139706733967227e-07	-3.605857099021404e-07
0.53	-0.3408780497287553	-0.03413192866370369	0.752933979314233	1.218033238770024	-0.3046702985845655	0.02855940505082413	-0.3406688646102081	0.8714404255689872	0.871440425569123	-0.1737060452697262	0.1688246274346685	0.1790309884724405	-0.01651476320246993	-0.4053243245577837	-0.1467351300953762	-0.5127425740848673	2.05254978745462	0.02901100723627375	0.6874976687684757	-0.5800833160836867	2.050335272491382	2.05033527249195	-0.006483915219593119	0.03859842799631853	0.5247068903128121	0.1198335183353538	-0.2022358660488234	0.01772455453035034	-0.02676094120929378	-0.2689702243504067	0.0999385094198512	0.03957936154454794	0.1998681463791363	-6.734767962204989	-18.55298088848787	5.460005564003669	-2.129010947639539	-618.4793303104691	-60.556346044022	-17.1367461859899	0.5753975228126216	0.5918376817203711	-0.2247490697151755	-1.84292116240053	0.5980209447814193	-0.4630229440563411	1.76849572464946	-1.880924662642649	-1.880924662649734	-0.0406315891064636	-0.1123397724439208	-0.6889051829898349	0.619708820072462	-3.331886112356034e-07	-1.535450803427025e-07	2.271863376602333e-06	2.721994129394235e-07	-4.068488474768472e-07	-3.153320065410749e-08	-3.356531887905761e-07
0.54	-0.344902236493024	-0.03556959816537358	0.7477964529863109	1.238464107850106	-0.3043501453935489	0.03540924703333843	-0.3463804616376802	0.891847197291722	0.8918471972918677	-0.1737711679529481	0.1692051605205245	0.1842430507590097	-0.01528515166897852	-0.3994686902403807	-0.1407882385969428	-0.5146482838901939	2.03334821198896	0.03498630120472285	0.6823828148040779	-0.5621702269323005	2.030739094470282	2.030739094470803	-0.006535369383203623	0.0375083167182318	0.5176285379046383	0.1260569457913996	-0.2082508250650885	0.01790790490465435	-0.02678634439993921	-0.2721061677601751	0.09872873048945562	0.03949459092551696	0.2049337856783824	-7.37483386562226	-18.3032970069884	5.305065492504268	-1.943890211889972	-623.1118744198898	-60.34012605082778	-15.86392318074243	0.5926485391193805	0.5971229058142086	-0.1563684748752144	-1.991808767851984	0.6071997762285001	-0.5814306538655363	1.817176552583883	-2.033149972341205	-2.033149972341175	0.06417320891352746	-0.1014689312235087	-0.722631412044783	0.6376469325611283	-3.028533849998198e-07	-5.595453556134007e-08	2.152091209586416e-06	2.679443927578784e-07	-3.759347491638861e-07	4.829455148773098e-08	-3.098204393259779e-07
